<?xml version="1.0" encoding="UTF-8" standalone="no"?>
<!-- Created with Inkscape (http://www.inkscape.org/) -->

<svg
   width="48"
   height="48"
   viewBox="0 0 48 48"
   version="1.1"
   id="svg1"
   xml:space="preserve"
   xmlns="http://www.w3.org/2000/svg"
   xmlns:svg="http://www.w3.org/2000/svg"><defs
     id="defs1" /><g
     id="layer1"
     transform="translate(-1951.9564,-1718.3176)"><rect
       style="mix-blend-mode:normal;fill:#0078ff;fill-opacity:1;stroke-width:9.99998;stroke-linecap:round;stroke-linejoin:round"
       id="rect14"
       width="48"
       height="48"
       x="1951.9564"
       y="1718.3175"
       ry="8.5051765" /><g
       id="g15"
       transform="matrix(0.19334026,0,0,0.19333936,1622.1439,1604.6745)"
       style="stroke-width:5.17223"><path
         id="path14"
         style="fill:#ffffff;fill-opacity:1;stroke-width:51.7223;stroke-linecap:round;stroke-linejoin:round"
         d="m 1875.7486,626.5414 a 37.057076,37.057076 0 0 0 -23.5604,10.75911 37.057076,37.057076 0 0 0 0,52.4076 37.057076,37.057076 0 0 0 52.4079,0 37.057076,37.057076 0 0 0 0,-52.4076 37.057076,37.057076 0 0 0 -28.8475,-10.75911 z m -90.7911,0.0531 a 37.153999,37.153999 0 0 0 -29.5136,10.66828 37.203083,37.203083 0 0 0 19.7882,62.93366 l 18.055,3.21353 a 55.797104,55.797104 0 0 1 45.1587,45.15866 l 3.2423,18.22156 a 37.11445,37.11445 0 0 0 62.7836,19.74117 l 0.1074,-0.10748 a 37.11445,37.11445 0 0 0 -19.7413,-62.78378 l -18.2229,-3.24228 a 55.797104,55.797104 0 0 1 -45.1572,-45.15867 l -3.2135,-18.055 a 37.153999,37.153999 0 0 0 -33.287,-30.58965 z m -5.9974,96.78828 a 37.057076,37.057076 0 0 0 -23.5585,10.75913 37.057076,37.057076 0 0 0 0,52.40613 37.057076,37.057076 0 0 0 52.4061,0 37.057076,37.057076 0 0 0 0,-52.40613 37.057076,37.057076 0 0 0 -28.8476,-10.75913 z" /></g></g></svg>
